<?xml version="1.0" encoding="UTF-8" standalone="no"?>
<!DOCTYPE svg PUBLIC "-//W3C//DTD SVG 1.1//EN"
 "http://www.w3.org/Graphics/SVG/1.1/DTD/svg11.dtd">
<!-- Generated by graphviz version 2.38.0 (20140413.2041)
 -->
<!-- Title: erd Pages: 1 -->
<svg width="1021pt" height="223pt"
 viewBox="0.00 0.00 1021.00 223.04" xmlns="http://www.w3.org/2000/svg" xmlns:xlink="http://www.w3.org/1999/xlink">
<g id="graph0" class="graph" transform="scale(1 1) rotate(0) translate(4 219.037)">
<title>erd</title>
<polygon fill="white" stroke="none" points="-4,4 -4,-219.037 1017,-219.037 1017,4 -4,4"/>
<!-- RootQueryType -->
<g id="node1" class="node"><title>RootQueryType</title>
<polygon fill="none" stroke="black" points="8,-180.5 8,-205.5 486,-205.5 486,-180.5 8,-180.5"/>
<text text-anchor="start" x="195.014" y="-189.1" font-family="Times,serif" font-weight="bold" font-size="16.00">RootQueryType</text>
<polygon fill="none" stroke="black" points="8,-155.5 8,-180.5 486,-180.5 486,-155.5 8,-155.5"/>
<text text-anchor="start" x="217.902" y="-163.1" font-family="Times,serif" font-size="16.00">me: User</text>
<polygon fill="none" stroke="black" points="8,-130.5 8,-155.5 486,-155.5 486,-130.5 8,-130.5"/>
<text text-anchor="start" x="80.172" y="-138.1" font-family="Times,serif" font-size="16.00">summarizedMonth(month:NaiveDateTime!): [User]</text>
<polygon fill="none" stroke="black" points="8,-105.5 8,-130.5 486,-130.5 486,-105.5 8,-105.5"/>
<text text-anchor="start" x="57.5232" y="-113.1" font-family="Times,serif" font-size="16.00">transactions(direction:TransactionDirection): [Transaction]</text>
<polygon fill="none" stroke="black" points="8,-80.5 8,-105.5 486,-105.5 486,-80.5 8,-80.5"/>
<text text-anchor="start" x="10.8808" y="-88.1" font-family="Times,serif" font-size="16.00">userTransactions(month:NaiveDateTime!, userId:UUID4!): [Transaction]</text>
<polygon fill="none" stroke="black" points="8,-55.5 8,-80.5 486,-80.5 486,-55.5 8,-55.5"/>
<text text-anchor="start" x="158.818" y="-63.1" font-family="Times,serif" font-size="16.00">users(name:String!): [User]</text>
</g>
<!-- User -->
<g id="node2" class="node"><title>User</title>
<polygon fill="none" stroke="black" points="695,-153.5 695,-178.5 867,-178.5 867,-153.5 695,-153.5"/>
<text text-anchor="start" x="765.899" y="-162.1" font-family="Times,serif" font-weight="bold" font-size="16.00">User</text>
<polygon fill="none" stroke="black" points="695,-128.5 695,-153.5 867,-153.5 867,-128.5 695,-128.5"/>
<text text-anchor="start" x="726.586" y="-136.1" font-family="Times,serif" font-size="16.00">balance: Balance</text>
<polygon fill="none" stroke="black" points="695,-103.5 695,-128.5 867,-128.5 867,-103.5 695,-103.5"/>
<text text-anchor="start" x="739.448" y="-111.1" font-family="Times,serif" font-size="16.00">email: String</text>
<polygon fill="none" stroke="black" points="695,-78.5 695,-103.5 867,-103.5 867,-78.5 695,-78.5"/>
<text text-anchor="start" x="746.565" y="-86.1" font-family="Times,serif" font-size="16.00">id: UUID4</text>
<polygon fill="none" stroke="black" points="695,-53.5 695,-78.5 867,-78.5 867,-53.5 695,-53.5"/>
<text text-anchor="start" x="739.894" y="-61.1" font-family="Times,serif" font-size="16.00">name: String</text>
<polygon fill="none" stroke="black" points="695,-28.5 695,-53.5 867,-53.5 867,-28.5 695,-28.5"/>
<text text-anchor="start" x="744.782" y="-36.1" font-family="Times,serif" font-size="16.00">role: String</text>
<polygon fill="none" stroke="black" points="695,-3.5 695,-28.5 867,-28.5 867,-3.5 695,-3.5"/>
<text text-anchor="start" x="697.675" y="-11.1" font-family="Times,serif" font-size="16.00">subscriptionToken: String</text>
</g>
<!-- RootQueryType&#45;&gt;User -->
<g id="edge1" class="edge"><title>RootQueryType:meport&#45;&gt;User</title>
<path fill="none" stroke="black" d="M487,-168.5C511.09,-168.5 507.188,-193.756 530,-201.5 580.923,-218.788 600.539,-220.093 651,-201.5 660.321,-198.066 669.426,-193.625 678.211,-188.503"/>
<polygon fill="black" stroke="black" points="680.202,-191.387 686.885,-183.166 676.534,-185.425 680.202,-191.387"/>
</g>
<!-- RootQueryType&#45;&gt;User -->
<g id="edge2" class="edge"><title>RootQueryType:summarizedMonthport&#45;&gt;User</title>
<path fill="none" stroke="black" d="M487,-143.5C509.106,-143.5 508.656,-162.746 530,-168.5 581.924,-182.497 599.157,-182.796 651,-168.5 659.863,-166.056 668.731,-162.825 677.435,-159.07"/>
<polygon fill="black" stroke="black" points="679.156,-162.132 686.807,-154.803 676.256,-155.762 679.156,-162.132"/>
</g>
<!-- RootQueryType&#45;&gt;User -->
<g id="edge5" class="edge"><title>RootQueryType:usersport&#45;&gt;User</title>
<path fill="none" stroke="black" d="M487,-67.5C516.648,-67.5 503.115,-28.9981 530,-16.5 578.766,6.16983 599.076,-2.50264 651,-16.5 659.817,-18.8768 668.652,-22.0211 677.332,-25.6764"/>
<polygon fill="black" stroke="black" points="676.123,-28.9691 686.683,-29.8313 678.966,-22.5721 676.123,-28.9691"/>
</g>
<!-- Transaction -->
<g id="node3" class="node"><title>Transaction</title>
<polygon fill="none" stroke="black" points="538.5,-129.5 538.5,-154.5 643.5,-154.5 643.5,-129.5 538.5,-129.5"/>
<text text-anchor="start" x="553.238" y="-138.1" font-family="Times,serif" font-weight="bold" font-size="16.00">Transaction</text>
<polygon fill="none" stroke="black" points="538.5,-104.5 538.5,-129.5 643.5,-129.5 643.5,-104.5 538.5,-104.5"/>
<text text-anchor="start" x="553.893" y="-112.1" font-family="Times,serif" font-size="16.00">amount: Int</text>
<polygon fill="none" stroke="black" points="538.5,-79.5 538.5,-104.5 643.5,-104.5 643.5,-79.5 538.5,-79.5"/>
<text text-anchor="start" x="541.026" y="-87.1" font-family="Times,serif" font-size="16.00">fromUser: User</text>
<polygon fill="none" stroke="black" points="538.5,-54.5 538.5,-79.5 643.5,-79.5 643.5,-54.5 538.5,-54.5"/>
<text text-anchor="start" x="556.565" y="-62.1" font-family="Times,serif" font-size="16.00">id: UUID4</text>
<polygon fill="none" stroke="black" points="538.5,-29.5 538.5,-54.5 643.5,-54.5 643.5,-29.5 538.5,-29.5"/>
<text text-anchor="start" x="550.352" y="-37.1" font-family="Times,serif" font-size="16.00">toUser: User</text>
</g>
<!-- RootQueryType&#45;&gt;Transaction -->
<g id="edge3" class="edge"><title>RootQueryType:transactionsport&#45;&gt;Transaction</title>
<path fill="none" stroke="black" d="M487,-117.5C497.798,-117.5 509.059,-116.174 519.996,-114.133"/>
<polygon fill="black" stroke="black" points="520.846,-117.532 529.928,-112.075 519.425,-110.677 520.846,-117.532"/>
</g>
<!-- RootQueryType&#45;&gt;Transaction -->
<g id="edge4" class="edge"><title>RootQueryType:userTransactionsport&#45;&gt;Transaction</title>
<path fill="none" stroke="black" d="M487,-92.5C497.627,-92.5 508.874,-92.5 519.873,-92.5"/>
<polygon fill="black" stroke="black" points="519.88,-96.0001 529.88,-92.5 519.88,-89.0001 519.88,-96.0001"/>
</g>
<!-- Balance -->
<g id="node4" class="node"><title>Balance</title>
<polygon fill="none" stroke="black" points="919,-166.5 919,-191.5 1005,-191.5 1005,-166.5 919,-166.5"/>
<text text-anchor="start" x="936.237" y="-175.1" font-family="Times,serif" font-weight="bold" font-size="16.00">Balance</text>
<polygon fill="none" stroke="black" points="919,-141.5 919,-166.5 1005,-166.5 1005,-141.5 919,-141.5"/>
<text text-anchor="start" x="924.462" y="-149.1" font-family="Times,serif" font-size="16.00">balance: Int</text>
<polygon fill="none" stroke="black" points="919,-116.5 919,-141.5 1005,-141.5 1005,-116.5 919,-116.5"/>
<text text-anchor="start" x="921.799" y="-124.1" font-family="Times,serif" font-size="16.00">received: Int</text>
<polygon fill="none" stroke="black" points="919,-91.5 919,-116.5 1005,-116.5 1005,-91.5 919,-91.5"/>
<text text-anchor="start" x="936.005" y="-99.1" font-family="Times,serif" font-size="16.00">sent: Int</text>
</g>
<!-- User&#45;&gt;Balance -->
<g id="edge6" class="edge"><title>User:balanceport&#45;&gt;Balance</title>
<path fill="none" stroke="black" d="M868,-141.5C878.523,-141.5 889.715,-141.5 900.554,-141.5"/>
<polygon fill="black" stroke="black" points="900.804,-145 910.804,-141.5 900.804,-138 900.804,-145"/>
</g>
<!-- Transaction&#45;&gt;User -->
<g id="edge7" class="edge"><title>Transaction:fromUserport&#45;&gt;User</title>
<path fill="none" stroke="black" d="M644.5,-91.5C654.84,-91.5 665.623,-91.5 676.393,-91.5"/>
<polygon fill="black" stroke="black" points="676.7,-95.0001 686.7,-91.5 676.7,-88.0001 676.7,-95.0001"/>
</g>
<!-- Transaction&#45;&gt;User -->
<g id="edge8" class="edge"><title>Transaction:toUserport&#45;&gt;User</title>
<path fill="none" stroke="black" d="M644.5,-41.5C655.251,-41.5 666.201,-42.9025 676.983,-45.2377"/>
<polygon fill="black" stroke="black" points="676.283,-48.6693 686.826,-47.631 677.936,-41.8675 676.283,-48.6693"/>
</g>
</g>
</svg>
